<svg xmlns="http://www.w3.org/2000/svg" viewBox="0 0 709.73 709.73"><defs><style>.a{fill:#ff0;stroke:#000;stroke-miterlimit:10;}</style></defs><title>svg2</title><rect class="a" x="6949.07" y="6949.07" width="500.86" height="500.86" transform="translate(354.87 -9826.76) rotate(45)"/><path d="M7270.59,7274.71H7124.74a91.3,91.3,0,0,1,15.22-40.65q12.71-19,47.68-44.93Q7209,7173.26,7215,7165t6-15.64a18.28,18.28,0,0,0-5.91-13.67,20.64,20.64,0,0,0-14.86-5.66q-9.3,0-15.21,5.84t-7.94,20.65l-48.7-3.94q2.86-20.52,10.5-32a48.82,48.82,0,0,1,21.55-17.67q13.91-6.15,38.49-6.14,25.67,0,39.93,5.84a48.6,48.6,0,0,1,22.43,18,47.42,47.42,0,0,1,8.18,27.15,55.61,55.61,0,0,1-9.37,30.56q-9.37,14.55-34.08,32-14.67,10.16-19.63,14.21t-11.64,10.62h75.91Z" transform="translate(-6844.63 -6844.63)"/></svg>