<svg xmlns="http://www.w3.org/2000/svg" viewBox="0 0 709.73 709.73"><defs><style>.a{fill:blue;stroke:#000;stroke-miterlimit:10;}.b{fill:#fff;}</style></defs><title>svg3</title><rect class="a" x="6949.07" y="6949.07" width="500.86" height="500.86" transform="translate(354.87 -9826.76) rotate(45)"/><path class="b" d="M7175.47,7150.34l-46-8.24q5.73-22,22-33.66t46.13-11.69q34.24,0,49.53,12.77t15.28,32.1a35.83,35.83,0,0,1-6.21,20.53q-6.21,9.19-18.74,16.12,10.14,2.5,15.52,5.84a37.91,37.91,0,0,1,13.55,14.15q4.83,8.77,4.83,20.94a58.37,58.37,0,0,1-8,29.31,53.56,53.56,0,0,1-23,21.6q-15,7.57-39.51,7.58-23.88,0-37.66-5.61a56.28,56.28,0,0,1-22.68-16.41q-8.88-10.8-13.66-27.16l48.58-6.44q2.86,14.68,8.89,20.35t15.34,5.67a21.11,21.11,0,0,0,16.29-7.16q6.49-7.17,6.5-19.1,0-12.18-6.26-18.86t-17-6.68q-5.73,0-15.76,2.86l2.51-34.73a46.07,46.07,0,0,0,6.33.6,22.19,22.19,0,0,0,15.93-6.09,19.28,19.28,0,0,0,6.39-14.44q0-8-4.78-12.77t-13.13-4.78q-8.6,0-14,5.19T7175.47,7150.34Z" transform="translate(-6844.63 -6844.63)"/></svg>